<svg xmlns="http://www.w3.org/2000/svg" viewBox="0 0 320 200" role="img" aria-label="Cyber Attack Studio"><defs><linearGradient id="bg" x1="0" y1="0" x2="1" y2="1"><stop offset="0%" stop-color="#13263c"/><stop offset="100%" stop-color="#6b1632"/></linearGradient></defs><rect width="320" height="200" rx="24" fill="url(#bg)"/><rect x="28" y="28" width="264" height="144" rx="18" fill="#fff" opacity=".96"/><path d="M72 49l34 12v28c0 23-13 42-34 52-21-10-34-29-34-52V61l34-12z" fill="#eff5fb" stroke="#126cc2" stroke-width="4" stroke-linejoin="round"/><path d="M54 89h36M72 71v36" stroke="#126cc2" stroke-width="5" stroke-linecap="round"/><rect x="134" y="52" width="124" height="14" rx="7" fill="#e7f0f8"/><rect x="134" y="78" width="112" height="10" rx="5" fill="#d7e4f0"/><rect x="134" y="100" width="124" height="10" rx="5" fill="#d7e4f0"/><rect x="134" y="122" width="94" height="10" rx="5" fill="#d7e4f0"/><circle cx="244" cy="143" r="18" fill="#fff1f1"/><path d="M237 136l14 14M251 136l-14 14" stroke="#c52d4f" stroke-width="5" stroke-linecap="round"/></svg>