<svg xmlns="http://www.w3.org/2000/svg" viewBox="0 0 320 200" role="img" aria-label="Privacy Studio"><defs><linearGradient id="bg" x1="0" y1="0" x2="1" y2="1"><stop offset="0%" stop-color="#173457"/><stop offset="100%" stop-color="#548cbb"/></linearGradient></defs><rect width="320" height="200" rx="24" fill="url(#bg)"/><rect x="28" y="28" width="264" height="144" rx="18" fill="#fff" opacity=".96"/><path d="M76 42l48 0 22 22v92H76z" fill="#f7fbff" stroke="#bad0e4" stroke-width="3"/><path d="M124 42v22h22" fill="none" stroke="#bad0e4" stroke-width="3" stroke-linejoin="round"/><rect x="90" y="79" width="42" height="8" rx="4" fill="#dce8f2"/><rect x="90" y="96" width="34" height="8" rx="4" fill="#dce8f2"/><rect x="88" y="118" width="46" height="12" rx="6" fill="#10283e"/><rect x="152" y="54" width="100" height="104" rx="16" fill="#eff8f1"/><path d="M202 75l28 10v24c0 19-11 34-28 43-17-9-28-24-28-43V85l28-10z" fill="#fff" stroke="#16935c" stroke-width="4" stroke-linejoin="round"/><path d="M191 109l8 8 15-18" fill="none" stroke="#16935c" stroke-width="5" stroke-linecap="round" stroke-linejoin="round"/></svg>