<svg xmlns="http://www.w3.org/2000/svg" viewBox="0 0 1600 720" role="img" aria-labelledby="title desc">
  <title id="title">Hero corporativo OpenTrust</title>
  <desc id="desc">Paisaje montañoso con edificio contemporáneo, terraza y figura humana, en estilo corporativo realista.</desc>
  <defs>
    <linearGradient id="sky" x1="0" y1="0" x2="0" y2="1">
      <stop offset="0%" stop-color="#f6efe8"/>
      <stop offset="28%" stop-color="#f4d7b5"/>
      <stop offset="58%" stop-color="#bfd8ef"/>
      <stop offset="100%" stop-color="#6a98bc"/>
    </linearGradient>
    <linearGradient id="mist" x1="0" y1="0" x2="1" y2="0">
      <stop offset="0%" stop-color="rgba(245,250,255,.88)"/>
      <stop offset="100%" stop-color="rgba(245,250,255,.15)"/>
    </linearGradient>
    <linearGradient id="glass" x1="0" y1="0" x2="1" y2="1">
      <stop offset="0%" stop-color="#3a566c"/>
      <stop offset="40%" stop-color="#8aaec5"/>
      <stop offset="100%" stop-color="#1e3548"/>
    </linearGradient>
    <linearGradient id="metal" x1="0" y1="0" x2="1" y2="0">
      <stop offset="0%" stop-color="#8a5a32"/>
      <stop offset="100%" stop-color="#4f2f17"/>
    </linearGradient>
    <filter id="softGlow" x="-20%" y="-20%" width="140%" height="140%">
      <feGaussianBlur stdDeviation="12"/>
    </filter>
  </defs>
  <rect width="1600" height="720" fill="url(#sky)"/>
  <ellipse cx="820" cy="175" rx="160" ry="60" fill="#fff8ed" opacity=".48" filter="url(#softGlow)"/>
  <path d="M0 425 140 372l90 20 110-70 125 38 120-74 98 24 114-58 102 16 114-53 144 52 120-64 323 43V720H0Z" fill="#8da4b7" opacity=".62"/>
  <path d="M0 454 84 446l128-95 75 53 149-116 82 82 119-129 118 87 131-131 86 80 140-127 92 81 167-117 229 185V720H0Z" fill="#7f98ad"/>
  <path d="M0 521 112 514l116-80 90 42 102-74 108 54 132-85 117 49 102-76 102 61 88-49 128 74 120-68 283 130V720H0Z" fill="#5d768d"/>
  <path d="M0 568 133 541l95 52 124-65 120 56 118-72 96 39 146-92 121 59 127-64 126 56 138-60 256 91V720H0Z" fill="#40566a"/>
  <path d="M0 588h1000l-75 38-130 10-120 13-188-18-98 17-140-18-149 7Z" fill="url(#mist)" opacity=".88"/>
  <path d="M1380 86h220v634h-32l-23-82-14-414-64-10-31-85-56-1Z" fill="#3c3129" opacity=".92"/>
  <path d="M1263 126h291v492h-273l-18-492Z" fill="url(#glass)"/>
  <path d="M1263 126h291v492h-273l-18-492Z" fill="none" stroke="#d7e6f2" stroke-opacity=".85"/>
  <path d="M1247 126h332l20-44H1231Z" fill="url(#metal)"/>
  <path d="M1287 146v457M1345 143v457M1404 141v462M1464 139v462M1520 137v462" stroke="#dce9f4" stroke-opacity=".32"/>
  <path d="M1273 215h275M1269 298h282M1266 382h288M1263 468h291M1261 549h294" stroke="#dce9f4" stroke-opacity=".22"/>
  <rect x="1324" y="450" width="76" height="98" rx="6" fill="#3a352f"/>
  <rect x="1418" y="430" width="100" height="118" rx="8" fill="#7f6547" opacity=".88"/>
  <rect x="1430" y="442" width="76" height="94" rx="4" fill="#e7d8c5" opacity=".85"/>
  <circle cx="1541" cy="559" r="24" fill="#4a5f53"/>
  <rect x="1180" y="522" width="165" height="72" fill="#a6bbc9" opacity=".28"/>
  <path d="M1178 522h168l-26 72h-166Z" fill="#4b6679" opacity=".95"/>
  <path d="M1012 598h338l-9 31-350 1Z" fill="#cfd7dc"/>
  <path d="M987 603h365l-49 18H999Z" fill="#8c9ca7" opacity=".9"/>
  <path d="M1090 406c10-15 38-21 50-6 7 7 2 19 2 29-1 39-1 78 0 117h-37l2-64-7-1-11 65h-30l15-79c3-17 7-38 16-61Z" fill="#2c343d"/>
  <circle cx="1112" cy="387" r="18" fill="#323b45"/>
  <path d="M998 614c182 6 341 7 602 0" stroke="#eef3f6" stroke-width="3" opacity=".55"/>
  <ellipse cx="910" cy="553" rx="290" ry="44" fill="#d8e5ee" opacity=".22"/>
  <ellipse cx="578" cy="575" rx="212" ry="37" fill="#dbe8ef" opacity=".22"/>
  <rect x="0" y="0" width="1600" height="720" fill="#0b1f3e" opacity=".14"/>
</svg>
